<svg width="573" height="577" viewBox="0 0 573 577" fill="none" xmlns="http://www.w3.org/2000/svg">
<g clip-path="url(#clip0_79_8)">
<path d="M356.011 44.948C383.58 74.4861 49.8893 232.335 32.0953 243.702C14.3013 255.069 1.57466 324.168 30.3696 311.631C59.1646 299.093 158.182 516.211 158.182 516.211C172.648 539.364 211.765 574.324 216.593 537.552C221.422 500.779 504.037 313.265 536.207 333.373C568.377 353.481 556.699 294.021 542.235 270.868C542.235 270.868 451.624 -150.174 398.224 167.541C344.825 485.255 328.442 15.4098 356.011 44.948Z" fill="url(#paint0_linear_79_8)"/>
<path d="M107.564 315.678C108.342 313.548 109.405 310.294 110.754 305.912C111.768 302.967 112.709 300.695 113.577 299.098C114.474 297.399 115.01 296.243 115.188 295.63C115.306 295.221 115.493 294.715 115.749 294.11C116.006 293.504 116.222 292.896 116.399 292.283C116.577 291.671 116.606 291.15 116.487 290.72C116.447 290.297 116.189 290.065 115.716 290.022L119.172 280.595C120.898 277.713 122.509 273.827 124.006 268.935C124.763 266.595 125.398 264.4 125.909 262.352C126.421 260.304 127.111 258.48 127.978 256.883L130.282 250.179C131.696 250.621 132.342 249.79 132.22 247.684C132.308 246.54 132.347 245.705 132.336 245.181C132.405 244.663 132.558 244.415 132.795 244.437C133.278 243.328 133.756 241.957 134.228 240.324C134.81 238.596 135.695 235.954 136.887 232.396L139.744 230.926C140.673 231.639 142.052 232.34 143.88 233.028C145.816 233.623 147.427 234.082 148.71 234.409C150.203 234.857 151.393 235.227 152.283 235.517C153.201 235.705 153.804 235.864 154.09 235.995L154.241 238.837C153.306 240.951 152.379 243.171 151.463 245.498C150.655 247.729 149.848 249.959 149.04 252.191C148.341 254.327 147.617 256.409 146.868 258.435C146.15 260.36 145.465 262.026 144.814 263.434C144.203 264.426 143.341 267.124 142.23 271.527C142.162 272.044 142.053 272.558 141.905 273.068C141.758 273.578 141.625 274.038 141.507 274.446L140.975 276.283C140.768 276.998 140.582 277.504 140.414 277.803C139.071 278.52 137.922 279.83 136.966 281.733C136.119 283.542 135.474 285.631 135.032 288C134.924 288.932 134.94 289.72 135.079 290.361C135.247 290.9 135.18 292.255 134.876 294.426C134.787 295.571 134.537 296.857 134.124 298.286C133.789 299.722 133.376 301.151 132.883 302.573C132.47 304.002 132.017 305.427 131.525 306.849C131.062 308.169 130.683 309.339 130.387 310.359C129.065 311.287 128.252 312.417 127.947 313.751C127.671 314.984 127.465 316.117 127.328 317.152C126.845 317.423 126.375 317.642 125.921 317.81C125.734 317.898 125.6 317.938 125.521 317.931C125.443 317.924 125.349 317.968 125.24 318.063C124.865 318.238 124.544 318.366 124.278 318.447C124.09 318.535 123.902 318.622 123.715 318.71L123.596 318.699L123.759 318.557C123.976 318.367 124.099 318.221 124.129 318.12C123.862 318.2 122.9 318.165 121.24 318.015L114.01 317.361C113.19 317.392 112.291 317.415 111.313 317.431C110.336 317.447 109.462 317.525 108.692 317.665L107.564 315.678ZM175.28 328.403L161.174 327.127L155.705 324.59L158.306 317.285L156.267 308.773L153.234 297.816L147.863 289.475L144.336 288.213C144.403 286.02 144.262 284.121 143.915 282.519C143.875 282.097 143.82 281.725 143.751 281.404C143.681 281.084 143.597 280.814 143.498 280.596C143.438 279.963 143.295 279.478 143.067 279.143L142.741 278.171C143.559 277.303 144.196 276.784 144.65 276.616C145.104 276.448 145.597 276.283 146.131 276.121C146.664 275.96 147.35 275.551 148.188 274.894C149.136 274.141 150.552 272.751 152.436 270.722C153.532 269.46 154.488 268.394 155.307 267.526C156.235 266.562 156.999 265.741 157.601 265.063C157.956 264.676 158.296 264.34 158.622 264.055C158.978 263.669 159.263 263.38 159.481 263.19C160.507 262.445 162.485 260.791 165.416 258.229C168.426 255.673 172.338 252.099 177.153 247.508C180.39 244.449 183.108 241.92 185.308 239.919C187.617 237.824 189.423 236.207 190.726 235.068L193.673 234.549C193.99 235.416 194.257 236.173 194.476 236.821C194.802 237.374 195.034 237.972 195.174 238.612C195.924 238.262 196.433 238.465 196.7 239.222C196.997 239.877 197.16 240.573 197.191 241.309C197.132 241.513 197.216 241.783 197.444 242.117C197.75 242.46 198.003 242.848 198.201 243.285C198.428 243.62 198.547 244.05 198.557 244.574C198.597 244.997 198.306 245.442 197.685 245.91L194.754 248.472C194.32 248.852 193.886 249.231 193.452 249.611C193.125 249.896 192.825 250.235 192.549 250.629C191.631 251.279 189.514 252.292 186.196 253.667C182.692 255.131 180.382 256.388 179.267 257.44C178.665 258.119 177.98 258.946 177.21 259.924C176.52 260.909 175.736 261.938 174.858 263.01C174.089 263.988 173.255 264.908 172.357 265.769C171.538 266.638 170.754 267.248 170.003 267.598C169.895 267.694 169.747 267.785 169.559 267.872C169.451 267.968 169.071 268.3 168.419 268.869C168.37 268.76 168.281 268.647 168.152 268.531C168.103 268.422 168.029 268.258 167.93 268.039C167.88 267.93 167.816 267.872 167.737 267.865C167.687 267.756 167.638 267.647 167.588 267.537C167.283 268.033 166.917 268.315 166.493 268.38C166.306 268.469 166.014 268.495 165.619 268.458C164.405 269.291 163.581 270.317 163.149 271.534C162.823 272.657 162.74 273.644 162.899 274.497C162.949 274.606 162.431 275.135 161.345 276.084C160.339 277.041 159.411 278.004 158.564 278.974L161.336 281.582L164.398 291.599L172.059 308.003L177.626 320.289L179.97 322.701L179.054 325.446L175.28 328.403ZM252.846 278.08C252.136 278.015 251.148 277.926 249.883 277.812C248.619 277.697 247.236 277.572 245.735 277.436C244.342 277.205 242.935 277.026 241.512 276.897C240.09 276.768 238.865 276.657 237.838 276.565L236.496 282.884C236.408 283.191 236.171 283.588 235.786 284.077C235.402 284.566 234.962 285.102 234.469 285.686C233.976 286.269 233.483 286.853 232.989 287.438C232.496 288.021 232.166 288.463 231.999 288.761C231.722 289.155 231.496 290.077 231.32 291.528C231.223 292.986 230.813 294.258 230.094 295.345C230.104 295.87 229.952 296.536 229.637 297.345C229.4 298.162 229.086 298.971 228.691 299.774C228.376 300.583 228.036 301.338 227.671 302.038C227.386 302.745 227.198 303.252 227.11 303.558C227.021 303.864 226.947 304.119 226.888 304.324C226.937 304.433 226.933 304.589 226.874 304.794C226.894 305.005 226.87 305.369 226.801 305.886C226.841 306.309 226.792 307.038 226.655 308.073C226.616 308.489 226.424 309.152 226.079 310.063C225.813 310.982 225.248 312.659 224.38 315.094C224.007 316.108 223.735 316.763 223.567 317.063C223.43 317.26 223.292 317.456 223.154 317.654C223.016 317.85 222.833 318.201 222.607 318.703C222.488 319.112 222.223 320.03 221.809 321.46L218.187 328.516L218.055 330.232L213.383 339.235C212.217 339.339 211.107 339.396 210.05 339.405C208.963 339.516 207.877 339.627 206.791 339.738C205.043 339.894 203.349 340.003 201.71 340.064C200.149 340.132 199.053 340.138 198.421 340.081C197.789 340.023 197.778 339.08 198.388 337.25C198.999 335.42 199.827 333.4 200.871 331.19C202.093 328.368 203.542 325.462 205.218 322.472C205.257 322.057 205.292 321.798 205.321 321.696C205.459 321.498 205.572 321.247 205.661 320.941C205.828 320.642 206.055 320.139 206.341 319.431C206.706 318.731 207.164 317.569 207.715 315.943C208.926 312.596 209.793 310.16 210.315 308.636C210.945 307.018 211.379 305.801 211.615 304.984C211.703 304.678 211.812 304.164 211.939 303.442C212.146 302.728 212.229 302.159 212.19 301.737L216.473 288.614C217.44 288.073 217.908 287.434 217.878 286.698C217.847 285.962 218.01 285.401 218.365 285.015C218.897 284.015 219.405 282.961 219.888 281.853C220.449 280.752 221.332 278.684 222.534 275.651L220.221 274.813C219.807 274.566 219.347 274.472 218.843 274.532C217.787 274.541 215.915 275.262 213.231 276.694L210.308 272.503C209.833 271.621 209.931 270.583 210.601 269.387C211.38 268.096 212.366 266.928 213.56 265.884L222.538 265.125L225.945 265.12C226.262 265.986 226.603 266.488 226.968 266.626C227.363 266.662 227.724 266.537 228.049 266.253C228.454 265.975 228.825 265.537 229.159 264.939C229.495 264.341 229.776 263.79 230.002 263.287C230.061 263.083 230.105 262.93 230.135 262.828C230.273 262.631 230.357 262.481 230.387 262.379L230.475 262.073C230.505 261.971 230.598 261.508 230.755 260.684C230.912 259.861 230.749 259.165 230.264 258.598C230.087 258.372 229.809 257.928 229.433 257.266C229.058 256.604 228.884 256.221 228.914 256.119C229.387 255.324 229.771 254.416 230.066 253.396C230.441 252.383 230.79 251.314 231.115 250.191L233.97 246.208C234.217 245.916 234.586 245.478 235.08 244.894C235.573 244.31 236.254 243.639 237.122 242.88L239.683 240.755L248.582 236.061L261.724 237.722L266.116 244.404L265.289 246.842L261.47 249.953L260.092 249.671L258.68 245.301C257.919 244.29 257.024 243.738 255.997 243.645C254.999 243.45 253.938 243.616 252.812 244.142C251.766 244.676 250.685 245.468 249.571 246.52C248.455 247.571 247.375 248.782 246.329 250.154L246.152 250.766C245.886 251.685 245.749 252.301 245.74 252.615C245.376 254.152 245.243 255.031 245.342 255.249C244.987 256.474 244.352 257.83 243.435 259.318C242.597 260.813 241.774 263.096 240.968 266.165L250.569 267.033C251.498 267.746 253.73 268.158 257.266 268.268C257.898 268.325 258.412 268.372 258.807 268.407C259.311 268.348 259.76 268.336 260.155 268.372L260.217 271.52L257.111 275.952L252.846 278.08ZM405.664 316.102C404.015 315.638 402.356 315.907 400.688 316.908C400.125 317.171 399.562 317.434 398.999 317.698C398.466 317.859 397.933 318.02 397.4 318.182C397.133 318.262 396.867 318.343 396.6 318.423C396.334 318.504 396.107 318.588 395.919 318.676L377.584 323.615C373.384 321.873 371.484 322.697 371.882 326.084C371.913 326.82 371.918 327.921 371.901 329.385C371.882 330.85 371.903 331.899 371.963 332.532C372.843 333.136 373.674 334.049 374.455 335.272C375.265 336.393 376.116 337.098 377.005 337.388L379.227 337.275C379.78 337.325 380.545 337.342 381.523 337.325C382.58 337.316 383.612 337.253 384.619 337.135C385.735 336.921 386.747 336.646 387.656 336.309C388.643 335.98 389.383 335.523 389.876 334.939C390.261 334.45 390.72 334.126 391.253 333.964C391.816 333.701 392.364 333.489 392.897 333.327C393.243 333.254 393.534 333.228 393.771 333.249C394.117 333.176 394.501 333.106 394.926 333.04L394.503 339.128L392.062 342.521C391.924 342.718 391.573 342.948 391.011 343.211C390.556 343.38 389.993 343.643 389.322 344.001C388.651 344.36 387.98 344.718 387.309 345.075C386.746 345.339 386.302 345.613 385.977 345.897C385.759 346.088 385.295 346.15 384.584 346.086C383.952 346.029 383.201 345.961 382.332 345.882C381.542 345.81 380.698 345.787 379.799 345.81C378.9 345.834 378.17 345.977 377.607 346.24C376.294 346.855 375.291 347.235 374.6 347.382C373.988 347.536 373.47 347.647 373.045 347.712C372.591 347.881 372.329 347.805 372.259 347.485C372.131 347.368 371.87 347.292 371.475 347.256C371.238 347.235 370.921 347.206 370.526 347.171C370.131 347.135 369.751 347.048 369.385 346.91C368.388 346.715 367.573 346.589 366.941 346.532C366.338 346.373 365.958 346.286 365.8 346.271L356.502 338.046C357.15 334.963 356.488 333.332 354.512 333.153C354.117 333.117 353.761 332.666 353.444 331.799C353.157 330.831 352.963 329.819 352.863 328.762C352.695 328.224 352.58 327.637 352.521 327.003C352.49 326.267 352.475 325.48 352.474 324.643L356.456 307.093L360.49 296.932C360.687 296.531 361.072 296.042 361.644 295.465C362.413 294.488 363.449 293.011 364.751 291.034C365.333 290.143 366.216 289.334 367.401 288.602C368.585 287.871 369.779 287.247 370.984 286.727C372.296 286.113 373.501 285.593 374.597 285.169C375.801 284.65 376.699 284.207 377.292 283.842C378.181 284.132 379.947 282.93 382.592 280.237C383.272 279.565 384.027 279.058 384.857 278.713C385.716 278.268 386.545 277.924 387.345 277.682C387.798 277.513 388.278 277.399 388.781 277.341C389.285 277.281 389.749 277.219 390.174 277.152L403.377 280.704C404.108 280.979 404.849 281.361 405.601 281.847C406.114 282.313 406.599 282.88 407.054 283.55C407.509 284.219 407.816 284.98 407.975 285.833C408.026 287.618 408.403 289.118 409.105 290.334C409.838 291.448 410.46 292.237 410.974 292.702L412.437 303.203L408.61 313.069L405.664 316.102ZM389.628 309.309L390.842 308.476C391.138 308.294 391.434 308.111 391.73 307.928C392.056 307.644 392.313 307.457 392.5 307.369C393.113 307.216 393.863 306.864 394.752 306.316C395.64 305.768 396.137 305.028 396.245 304.095C396.747 302.36 396.597 300.356 395.794 298.084C394.992 295.813 393.578 294.113 391.553 292.987C390.594 292.377 389.601 292.025 388.574 291.933C387.547 291.84 386.529 291.852 385.522 291.971C384.624 291.994 383.749 292.072 382.9 292.205C382.13 292.344 381.508 292.392 381.034 292.35C379.364 291.675 378.027 292.653 377.022 295.286C375.157 297.526 373.812 300.075 372.985 302.933C372.267 305.695 371.736 308.371 371.393 310.958C370.98 312.387 370.838 313.579 370.967 314.533C371.176 315.494 371.566 316.106 372.139 316.367C372.712 316.628 373.389 316.532 374.169 316.08C375.057 315.532 375.96 314.514 376.876 313.025L389.628 309.309Z" fill="white"/>
<path d="M457.518 276.451C456.741 276.631 455.908 276.929 455.014 277.347C454.167 277.769 453.336 278.224 452.519 278.711C452.392 278.824 452.299 278.972 452.247 279.154L452.115 279.61C452.08 279.731 451.989 279.879 451.842 280.052C451.742 280.231 451.54 280.43 451.234 280.652C451.247 280.778 451.164 280.895 450.987 281.004C450.829 281.052 450.606 281.156 450.317 281.317C450.077 281.483 449.819 281.709 449.542 281.995C449.284 282.221 449.075 282.607 448.917 283.154C448.13 283.208 447.445 283.488 446.863 283.997C446.299 284.445 445.634 284.915 444.863 285.406C444.206 285.346 443.653 285.67 443.206 286.378C442.762 287.086 442.182 288 441.472 289.12C441.302 290.04 440.773 291.207 439.879 292.623C439.164 293.93 438.744 294.796 438.621 295.221C438.48 295.707 438.505 295.958 438.692 295.975L439.045 296.008C439.375 296.038 440.022 295.971 440.985 295.809C441.967 295.586 443.036 295.309 444.194 294.977C445.399 294.65 446.581 294.32 447.738 293.988C448.914 293.596 449.86 293.245 450.576 292.936C451.358 292.571 452.002 292.348 452.507 292.269C453.078 292.134 453.56 292.053 453.952 292.027C454.347 292 454.708 292.001 455.037 292.031C455.367 292.061 455.737 292.032 456.149 291.944L457.526 294.688C457.051 295.33 456.708 296.016 456.497 296.745C456.352 297.418 456.233 297.906 456.146 298.209C455.853 298.557 455.412 298.829 454.824 299.025C454.301 299.165 453.62 299.353 452.779 299.588C452.602 299.696 452.239 299.789 451.686 299.863C451.134 299.938 450.316 300.176 449.235 300.576C447.126 301.196 445.867 301.456 445.461 301.357C444.998 301.627 444.178 301.708 443.001 301.602C441.844 301.435 440.254 301.51 438.231 301.825C437.172 301.979 436.139 302.135 435.128 302.292C434.135 302.39 433.227 302.525 432.402 302.701C431.945 302.784 431.486 302.867 431.027 302.95C430.569 303.034 430.134 303.118 429.722 303.206C429.118 303.463 428.669 303.516 428.373 303.364C428.144 303.157 427.968 303.017 427.844 302.942C427.751 302.934 427.48 303.034 427.033 303.243C426.651 303.396 426.158 303.6 425.552 303.857L425.164 304.197L423.698 301.258C423.845 301.085 423.935 300.937 423.97 300.815C424.054 300.698 424.135 300.581 424.217 300.464C424.458 299.8 424.511 299.368 424.375 299.169C424.24 298.97 424.427 298.737 424.939 298.472C425.914 296.939 426.703 295.545 427.307 294.291C427.929 292.975 428.421 291.774 428.784 290.684C428.907 290.258 429.125 289.842 429.436 289.434C429.812 288.969 430.211 288.506 430.633 288.046C431.056 287.586 431.465 287.092 431.857 286.567C432.298 286.046 432.621 285.514 432.826 284.971L436.332 281.361C436.602 281.261 436.865 281.191 437.116 281.151C437.387 281.051 437.681 280.953 437.998 280.857C438.427 280.709 438.707 280.579 438.836 280.465C438.982 280.292 439.05 280.142 439.038 280.016C439.09 279.834 439.112 279.68 439.099 279.554C439.152 279.372 439.244 279.224 439.372 279.111C439.966 278.729 440.5 278.465 440.976 278.321C441.469 278.117 441.871 278.152 442.175 278.429C442.905 278.745 443.635 278.562 444.362 277.88C444.668 277.658 444.988 277.468 445.322 277.312C445.675 277.095 445.99 276.842 446.265 276.555C446.348 276.439 446.545 276.175 446.855 275.767C447.232 275.302 447.661 274.655 448.141 273.826C448.669 273.001 449.098 272.355 449.426 271.885C449.756 271.416 449.937 271.121 449.972 270.999C450.025 270.817 450.007 270.628 449.919 270.433L449.83 270.238L452.6 262.915C452.543 262.784 452.483 262.654 452.424 262.524C452.366 262.394 452.307 262.264 452.247 262.134C452.083 261.871 451.936 261.545 451.805 261.159C451.694 260.713 451.543 260.232 451.354 259.715C450.712 257.6 450.178 256.523 449.755 256.485C449.708 256.481 449.393 256.484 448.811 256.494C448.294 256.447 447.51 256.407 446.457 256.374C445.358 256.337 444.423 256.314 443.652 256.307C442.882 256.3 442.283 256.37 441.853 256.519L436.38 259.67L434.175 259.284C434.264 258.98 434.443 258.529 434.712 257.929C435.029 257.335 435.332 256.708 435.619 256.047C435.953 255.392 436.256 254.765 436.525 254.166C436.842 253.571 437.053 253.092 437.159 252.727C437.476 252.631 437.825 252.507 438.207 252.354C438.654 252.146 438.971 252.05 439.16 252.066C440.147 252.155 440.87 251.909 441.328 251.327C441.745 250.555 442.142 250.185 442.517 250.22C442.612 250.228 443.115 250.242 444.025 250.262C445.002 250.226 446.465 250.171 448.417 250.099C449.347 250.058 450.251 250.015 451.132 249.97C452.014 249.925 452.802 249.872 453.495 249.81C454.189 249.748 454.757 249.706 455.197 249.684C455.704 249.605 456.004 249.569 456.097 249.578C456.215 249.838 456.419 250.137 456.706 250.474C457.059 250.756 457.427 251.07 457.809 251.416C458.21 251.702 458.577 252.015 458.913 252.358C459.313 252.643 459.625 252.983 459.849 253.378C460.073 253.772 460.272 254.164 460.449 254.554C460.643 254.883 460.862 255.215 461.103 255.548C461.345 255.882 461.665 256.192 462.065 256.477C462.484 256.702 463.05 256.909 463.767 257.098L464.637 262.601C464.645 263.911 464.132 265.018 463.097 265.922C462.176 266.773 461.842 267.679 462.095 268.636C461.826 269.236 461.448 270.043 460.96 271.059C460.52 272.079 460.089 273.068 459.667 274.027L457.518 276.451Z" fill="white"/>
<g filter="url(#filter0_d_79_8)">
<path d="M361.706 245.596C363.172 245.735 364.84 244.128 365.435 242.008L369.025 229.211C369.619 227.09 368.915 225.259 367.451 225.121L302.07 218.941C300.607 218.802 298.938 220.409 298.344 222.53L294.327 236.846C293.732 238.966 294.436 240.798 295.9 240.936L314.737 242.717C320.77 243.287 324.504 246.91 325.758 252.708L293.454 249.655C291.991 249.517 290.322 251.123 289.727 253.243L286.137 266.041C285.542 268.161 286.246 269.992 287.71 270.131L322.776 273.445C318.165 284.86 310.234 291.515 301.002 290.642L282.448 288.889C280.984 288.751 279.316 290.358 278.721 292.478L273.962 309.438C273.662 310.509 273.684 311.562 274.023 312.339L296.806 364.529C297.113 365.23 297.652 365.655 298.317 365.718L316.554 367.441C318.967 367.669 321.328 363.488 320.221 360.952L299.394 313.241C316.501 314.09 333.153 298.897 341.426 275.208L353.091 276.31C354.555 276.448 356.224 274.841 356.819 272.721L360.409 259.924C361.004 257.804 360.3 255.973 358.834 255.835L345.872 254.609C346.137 250.844 346.039 247.319 345.596 244.074L361.706 245.596Z" fill="#144E77"/>
<path d="M275.716 311.561L298.505 363.753C298.505 363.753 298.505 363.753 298.504 363.754C298.586 363.94 298.676 364.036 298.73 364.078C298.752 364.096 298.767 364.104 298.775 364.107L317.008 365.83C317.015 365.831 317.021 365.831 317.035 365.828C317.041 365.827 317.047 365.825 317.055 365.822C317.091 365.811 317.169 365.777 317.284 365.692C317.527 365.513 317.837 365.178 318.115 364.687C318.69 363.669 318.851 362.495 318.519 361.735L297.687 314.023L296.569 311.462L299.759 311.62C307.647 312.011 315.529 308.728 322.534 302.376C329.561 296.003 335.643 286.58 339.709 274.942L340.235 273.434L341.887 273.59L353.544 274.692C353.579 274.687 353.75 274.647 354.054 274.354C354.44 273.983 354.849 273.355 355.075 272.554L358.666 259.756C358.89 258.955 358.845 258.285 358.682 257.861C358.553 257.528 358.413 257.458 358.382 257.447L345.427 256.223L343.976 256.086L344.071 254.749C344.33 251.072 344.233 247.644 343.805 244.501L343.492 242.212L346.059 242.454L362.162 243.976C362.198 243.971 362.369 243.931 362.672 243.639C363.058 243.266 363.468 242.639 363.693 241.838L367.284 229.04C367.509 228.24 367.464 227.569 367.3 227.145C367.172 226.812 367.032 226.742 367.001 226.731L301.626 220.554C301.59 220.559 301.419 220.6 301.117 220.89C300.731 221.263 300.321 221.89 300.096 222.691L296.079 237.008C295.854 237.809 295.9 238.479 296.062 238.904C296.19 239.235 296.33 239.306 296.361 239.317L315.192 241.096C322.05 241.745 326.19 245.912 327.544 252.172L328.066 254.582L325.308 254.322L293.007 251.269C292.972 251.274 292.801 251.315 292.498 251.606C292.112 251.978 291.702 252.606 291.477 253.406L287.886 266.205C287.662 267.006 287.707 267.676 287.87 268.1C287.998 268.432 288.137 268.503 288.168 268.514L323.232 271.827L325.192 272.012L324.476 273.784C322.094 279.679 318.79 284.515 314.715 287.786C310.584 291.103 305.727 292.749 300.545 292.259L281.998 290.506C281.963 290.511 281.791 290.552 281.489 290.843C281.102 291.215 280.692 291.843 280.468 292.643L275.709 309.605C275.479 310.421 275.528 311.129 275.716 311.561ZM275.716 311.561L274.103 312.3M301.633 220.553C301.633 220.553 301.631 220.553 301.628 220.553M366.995 226.73C366.995 226.73 366.996 226.73 366.999 226.73M362.156 243.977C362.156 243.977 362.157 243.976 362.16 243.977M296.367 239.319C296.367 239.319 296.365 239.319 296.364 239.318C296.366 239.318 296.367 239.319 296.367 239.319ZM358.377 257.445C358.377 257.445 358.377 257.445 358.38 257.446C358.377 257.446 358.377 257.445 358.377 257.445ZM353.537 274.692C353.537 274.692 353.538 274.692 353.541 274.692C353.538 274.692 353.537 274.692 353.537 274.692ZM282.005 290.505C282.005 290.505 282.003 290.506 282.001 290.505C282.003 290.505 282.005 290.505 282.005 290.505ZM288.175 268.516C288.175 268.516 288.173 268.515 288.171 268.514C288.173 268.515 288.175 268.516 288.175 268.516ZM293.014 251.268C293.014 251.268 293.012 251.269 293.01 251.269C293.013 251.268 293.014 251.268 293.014 251.268Z" stroke="#FDF0F0" stroke-width="4"/>
</g>
</g>
<rect x="6" y="6" width="561" height="565" rx="280.5" stroke="#FF0101" stroke-width="12"/>
<defs>
<filter id="filter0_d_79_8" x="273.435" y="218.626" width="134.083" height="187.118" filterUnits="userSpaceOnUse" color-interpolation-filters="sRGB">
<feFlood flood-opacity="0" result="BackgroundImageFix"/>
<feColorMatrix in="SourceAlpha" type="matrix" values="0 0 0 0 0 0 0 0 0 0 0 0 0 0 0 0 0 0 127 0" result="hardAlpha"/>
<feOffset dx="22" dy="22"/>
<feGaussianBlur stdDeviation="8"/>
<feComposite in2="hardAlpha" operator="out"/>
<feColorMatrix type="matrix" values="0 0 0 0 0.391667 0 0 0 0 0.391667 0 0 0 0 0.391667 0 0 0 0.65 0"/>
<feBlend mode="normal" in2="BackgroundImageFix" result="effect1_dropShadow_79_8"/>
<feBlend mode="normal" in="SourceGraphic" in2="effect1_dropShadow_79_8" result="shape"/>
</filter>
<linearGradient id="paint0_linear_79_8" x1="415.571" y1="264.063" x2="387.338" y2="437.245" gradientUnits="userSpaceOnUse">
<stop stop-color="#34AEF3" stop-opacity="0.68"/>
<stop offset="1" stop-color="#1150CA" stop-opacity="0.7"/>
</linearGradient>
<clipPath id="clip0_79_8">
<rect x="12" y="12" width="549" height="553" rx="274.5" fill="white"/>
</clipPath>
</defs>
</svg>
