<svg width="550" height="554" viewBox="0 0 550 554" fill="none" xmlns="http://www.w3.org/2000/svg">
<g clip-path="url(#clip0_4_28)">
<path d="M344.921 33.3314C372.49 62.8696 38.7999 220.719 21.0059 232.086C3.21186 243.453 -9.51474 312.552 19.2802 300.014C48.0752 287.477 147.093 504.595 147.093 504.595C161.558 527.748 200.675 562.708 205.504 525.935C210.332 489.162 492.948 301.649 525.118 321.757C557.288 341.865 545.61 282.405 531.145 259.252C531.145 259.252 440.534 -161.79 387.135 155.924C333.736 473.639 317.352 3.79329 344.921 33.3314Z" fill="url(#paint0_linear_4_28)"/>
<path d="M96.4744 304.061C97.2523 301.932 98.3154 298.677 99.6644 294.295C100.679 291.35 101.619 289.078 102.487 287.481C103.385 285.782 103.921 284.626 104.099 284.014C104.216 283.605 104.404 283.099 104.66 282.493C104.916 281.888 105.133 281.279 105.31 280.667C105.487 280.054 105.517 279.533 105.397 279.104C105.358 278.681 105.1 278.448 104.626 278.406L108.083 268.978C109.809 266.097 111.42 262.21 112.916 257.318C113.674 254.978 114.309 252.783 114.82 250.736C115.332 248.687 116.022 246.864 116.889 245.267L119.193 238.563C120.606 239.004 121.252 238.173 121.131 236.068C121.219 234.923 121.258 234.089 121.247 233.565C121.316 233.047 121.469 232.799 121.706 232.821C122.188 231.712 122.667 230.341 123.139 228.708C123.72 226.98 124.606 224.338 125.797 220.779L128.655 219.31C129.584 220.022 130.963 220.723 132.79 221.412C134.727 222.006 136.338 222.466 137.621 222.792C139.113 223.241 140.304 223.61 141.193 223.9C142.112 224.089 142.715 224.247 143.001 224.378L143.152 227.22C142.216 229.334 141.29 231.555 140.373 233.881C139.566 236.112 138.758 238.343 137.951 240.574C137.251 242.71 136.527 244.792 135.779 246.819C135.06 248.744 134.375 250.41 133.725 251.817C133.114 252.81 132.252 255.507 131.14 259.91C131.072 260.427 130.963 260.941 130.816 261.451C130.668 261.962 130.536 262.422 130.417 262.83L129.886 264.667C129.679 265.381 129.493 265.888 129.325 266.187C127.982 266.903 126.833 268.213 125.876 270.117C125.03 271.925 124.384 274.014 123.942 276.383C123.835 277.316 123.851 278.103 123.989 278.744C124.157 279.283 124.09 280.638 123.786 282.81C123.698 283.954 123.448 285.241 123.034 286.669C122.7 288.106 122.286 289.535 121.794 290.956C121.38 292.385 120.928 293.811 120.436 295.232C119.972 296.552 119.593 297.722 119.298 298.742C117.976 299.671 117.163 300.801 116.858 302.135C116.582 303.367 116.376 304.501 116.239 305.535C115.755 305.806 115.286 306.025 114.832 306.194C114.644 306.281 114.511 306.321 114.432 306.315C114.353 306.308 114.26 306.352 114.151 306.446C113.775 306.622 113.455 306.749 113.188 306.831C113.001 306.918 112.813 307.006 112.625 307.094L112.507 307.083L112.67 306.94C112.887 306.751 113.01 306.605 113.04 306.503C112.773 306.584 111.81 306.549 110.151 306.399L102.92 305.744C102.101 305.775 101.202 305.798 100.224 305.815C99.2465 305.831 98.3722 305.909 97.6022 306.049L96.4744 304.061ZM164.19 316.787L150.085 315.511L144.616 312.973L147.216 305.668L145.178 297.157L142.145 286.199L136.773 277.858L133.246 276.596C133.313 274.403 133.173 272.505 132.825 270.903C132.786 270.48 132.731 270.108 132.662 269.788C132.592 269.467 132.508 269.198 132.409 268.979C132.349 268.346 132.206 267.861 131.978 267.527L131.651 266.554C132.47 265.686 133.106 265.168 133.561 264.999C134.015 264.831 134.508 264.666 135.041 264.505C135.574 264.344 136.26 263.934 137.099 263.277C138.047 262.525 139.463 261.135 141.347 259.106C142.442 257.843 143.399 256.778 144.218 255.909C145.145 254.946 145.91 254.124 146.512 253.446C146.866 253.059 147.207 252.723 147.533 252.438C147.888 252.052 148.174 251.763 148.391 251.574C149.418 250.828 151.396 249.175 154.327 246.612C157.337 244.057 161.249 240.483 166.064 235.891C169.301 232.833 172.019 230.303 174.219 228.303C176.528 226.207 178.334 224.59 179.637 223.452L182.584 222.933C182.901 223.799 183.168 224.557 183.386 225.205C183.713 225.758 183.945 226.355 184.085 226.996C184.834 226.645 185.344 226.848 185.611 227.605C185.908 228.261 186.071 228.957 186.102 229.692C186.043 229.897 186.127 230.166 186.355 230.501C186.661 230.843 186.914 231.232 187.112 231.669C187.339 232.004 187.458 232.434 187.468 232.958C187.508 233.38 187.217 233.826 186.595 234.293L183.664 236.855C183.23 237.235 182.796 237.615 182.362 237.995C182.036 238.28 181.736 238.619 181.46 239.013C180.541 239.663 178.424 240.676 175.107 242.051C171.603 243.514 169.292 244.772 168.178 245.823C167.576 246.502 166.891 247.33 166.121 248.307C165.43 249.293 164.646 250.322 163.769 251.394C163 252.372 162.165 253.291 161.268 254.153C160.449 255.021 159.664 255.631 158.914 255.982C158.805 256.077 158.658 256.168 158.47 256.256C158.362 256.351 157.982 256.683 157.33 257.253C157.28 257.144 157.191 257.03 157.063 256.914C157.014 256.805 156.939 256.641 156.84 256.423C156.791 256.313 156.726 256.255 156.648 256.248C156.598 256.139 156.549 256.03 156.499 255.921C156.193 256.416 155.828 256.698 155.404 256.764C155.216 256.852 154.925 256.878 154.53 256.842C153.316 257.675 152.492 258.7 152.059 259.917C151.734 261.041 151.651 262.028 151.81 262.88C151.859 262.99 151.341 263.518 150.256 264.467C149.25 265.424 148.322 266.387 147.474 267.358L150.246 269.965L153.309 279.983L160.97 296.386L166.537 308.673L168.88 311.085L167.965 313.829L164.19 316.787ZM241.757 266.463C241.046 266.399 240.058 266.31 238.794 266.195C237.53 266.081 236.147 265.956 234.646 265.82C233.253 265.589 231.845 265.409 230.423 265.281C229.001 265.152 227.776 265.041 226.748 264.948L225.407 271.268C225.318 271.574 225.082 271.971 224.697 272.461C224.312 272.949 223.873 273.486 223.38 274.069C222.887 274.653 222.394 275.237 221.9 275.821C221.407 276.405 221.076 276.846 220.909 277.145C220.633 277.539 220.406 278.461 220.231 279.911C220.133 281.369 219.724 282.641 219.005 283.728C219.015 284.253 218.862 284.92 218.548 285.729C218.311 286.545 217.996 287.355 217.602 288.157C217.286 288.966 216.947 289.721 216.582 290.421C216.296 291.129 216.109 291.635 216.021 291.942C215.931 292.247 215.858 292.503 215.799 292.707C215.848 292.817 215.844 292.973 215.784 293.177C215.805 293.389 215.78 293.753 215.711 294.27C215.752 294.693 215.703 295.421 215.566 296.456C215.526 296.872 215.335 297.536 214.99 298.447C214.724 299.365 214.158 301.042 213.291 303.478C212.917 304.491 212.646 305.147 212.478 305.446C212.34 305.643 212.202 305.84 212.064 306.037C211.927 306.234 211.743 306.584 211.517 307.087C211.399 307.496 211.134 308.414 210.72 309.843L207.098 316.899L206.966 318.616L202.294 327.618C201.128 327.723 200.018 327.779 198.96 327.788C197.874 327.899 196.788 328.01 195.701 328.122C193.954 328.278 192.26 328.387 190.62 328.447C189.06 328.516 187.964 328.522 187.332 328.464C186.7 328.407 186.688 327.464 187.299 325.634C187.91 323.803 188.737 321.783 189.782 319.574C191.003 316.752 192.452 313.846 194.129 310.855C194.168 310.44 194.202 310.182 194.231 310.079C194.37 309.882 194.483 309.63 194.572 309.324C194.739 309.026 194.966 308.522 195.252 307.815C195.617 307.115 196.074 305.952 196.626 304.326C197.837 300.979 198.704 298.544 199.226 297.02C199.856 295.401 200.29 294.184 200.526 293.367C200.614 293.061 200.723 292.547 200.85 291.826C201.057 291.111 201.14 290.543 201.1 290.12L205.383 276.997C206.35 276.456 206.819 275.817 206.789 275.082C206.758 274.346 206.921 273.784 207.276 273.398C207.808 272.399 208.315 271.345 208.799 270.236C209.36 269.135 210.242 267.067 211.444 264.034L209.132 263.197C208.717 262.95 208.258 262.856 207.754 262.915C206.697 262.924 204.826 263.645 202.142 265.078L199.218 260.886C198.744 260.005 198.842 258.967 199.512 257.77C200.29 256.479 201.277 255.312 202.471 254.268L211.449 253.509L214.855 253.503C215.173 254.37 215.514 254.872 215.879 255.009C216.274 255.045 216.635 254.921 216.96 254.636C217.365 254.359 217.735 253.921 218.07 253.323C218.405 252.724 218.686 252.174 218.913 251.671C218.972 251.466 219.016 251.314 219.046 251.212C219.184 251.014 219.268 250.865 219.297 250.763L219.385 250.457C219.416 250.355 219.508 249.892 219.666 249.068C219.823 248.245 219.659 247.549 219.175 246.981C218.997 246.756 218.72 246.312 218.344 245.649C217.968 244.987 217.795 244.604 217.824 244.502C218.297 243.707 218.682 242.8 218.977 241.779C219.351 240.766 219.701 239.698 220.026 238.575L222.881 234.591C223.128 234.299 223.497 233.862 223.991 233.277C224.484 232.694 225.164 232.023 226.033 231.263L228.594 229.139L237.493 224.445L250.634 226.105L255.027 232.787L254.2 235.226L250.38 238.337L249.002 238.054L247.59 233.685C246.829 232.674 245.935 232.121 244.908 232.028C243.909 231.834 242.849 231.999 241.723 232.526C240.677 233.059 239.596 233.852 238.481 234.903C237.366 235.954 236.286 237.166 235.24 238.537L235.063 239.15C234.797 240.069 234.66 240.684 234.65 240.998C234.286 242.536 234.154 243.414 234.253 243.633C233.898 244.858 233.263 246.214 232.346 247.702C231.508 249.197 230.685 251.479 229.879 254.548L239.48 255.417C240.409 256.13 242.641 256.541 246.177 256.651C246.809 256.709 247.322 256.755 247.717 256.791C248.221 256.731 248.67 256.72 249.066 256.756L249.128 259.904L246.021 264.336L241.757 266.463ZM394.575 304.485C392.925 304.022 391.266 304.29 389.598 305.292C389.036 305.555 388.473 305.818 387.91 306.081C387.377 306.243 386.844 306.404 386.311 306.565C386.044 306.646 385.778 306.726 385.511 306.807C385.245 306.887 385.018 306.972 384.83 307.06L366.495 311.998C362.295 310.257 360.395 311.08 360.793 314.468C360.824 315.203 360.829 316.304 360.812 317.769C360.793 319.233 360.813 320.283 360.874 320.916C361.753 321.519 362.584 322.432 363.366 323.655C364.176 324.776 365.027 325.481 365.916 325.771L368.138 325.659C368.691 325.708 369.456 325.725 370.434 325.709C371.491 325.7 372.522 325.636 373.53 325.518C374.646 325.305 375.658 325.029 376.567 324.693C377.553 324.363 378.294 323.906 378.787 323.323C379.172 322.833 379.63 322.509 380.163 322.347C380.726 322.084 381.274 321.872 381.808 321.711C382.153 321.637 382.445 321.612 382.682 321.633C383.027 321.559 383.412 321.49 383.837 321.423L383.414 327.512L380.973 330.904C380.834 331.102 380.484 331.331 379.922 331.595C379.467 331.763 378.904 332.026 378.233 332.385C377.562 332.743 376.89 333.101 376.22 333.459C375.656 333.723 375.213 333.997 374.887 334.281C374.67 334.471 374.206 334.534 373.494 334.469C372.862 334.412 372.112 334.345 371.243 334.265C370.453 334.194 369.608 334.171 368.709 334.194C367.81 334.217 367.08 334.36 366.517 334.623C365.205 335.238 364.202 335.619 363.511 335.766C362.898 335.919 362.38 336.03 361.956 336.096C361.502 336.265 361.24 336.189 361.17 335.868C361.042 335.752 360.78 335.675 360.385 335.639C360.148 335.619 359.832 335.59 359.437 335.554C359.042 335.518 358.661 335.432 358.296 335.294C357.298 335.098 356.483 334.973 355.851 334.915C355.248 334.756 354.868 334.67 354.71 334.655L345.412 326.43C346.061 323.347 345.398 321.715 343.423 321.537C343.027 321.501 342.672 321.049 342.355 320.183C342.067 319.214 341.874 318.202 341.774 317.145C341.606 316.607 341.491 316.02 341.432 315.387C341.401 314.65 341.386 313.864 341.385 313.026L345.366 295.477L349.401 285.315C349.598 284.914 349.983 284.426 350.555 283.849C351.324 282.871 352.36 281.394 353.662 279.417C354.244 278.527 355.126 277.717 356.311 276.986C357.496 276.255 358.69 275.63 359.895 275.11C361.207 274.497 362.411 273.977 363.507 273.553C364.712 273.033 365.61 272.591 366.202 272.225C367.092 272.515 368.858 271.313 371.503 268.62C372.183 267.949 372.938 267.441 373.767 267.097C374.626 266.651 375.455 266.308 376.255 266.065C376.709 265.897 377.188 265.783 377.692 265.724C378.196 265.665 378.66 265.602 379.084 265.536L392.288 269.087C393.019 269.362 393.76 269.744 394.511 270.231C395.025 270.696 395.509 271.264 395.964 271.934C396.42 272.603 396.726 273.364 396.886 274.216C396.937 276.001 397.314 277.502 398.015 278.717C398.748 279.831 399.371 280.62 399.885 281.086L401.348 291.587L397.52 301.452L394.575 304.485ZM378.539 297.693L379.752 296.86C380.049 296.677 380.345 296.494 380.641 296.312C380.967 296.027 381.223 295.84 381.411 295.753C382.023 295.599 382.774 295.248 383.662 294.7C384.551 294.152 385.048 293.412 385.156 292.479C385.658 290.744 385.508 288.74 384.705 286.468C383.903 284.196 382.489 282.497 380.464 281.371C379.505 280.76 378.512 280.409 377.485 280.316C376.457 280.223 375.44 280.236 374.432 280.354C373.534 280.377 372.66 280.455 371.81 280.588C371.041 280.727 370.418 280.776 369.944 280.733C368.275 280.058 366.937 281.037 365.932 283.669C364.068 285.909 362.723 288.459 361.895 291.316C361.178 294.079 360.646 296.755 360.304 299.341C359.891 300.771 359.749 301.962 359.878 302.916C360.086 303.878 360.477 304.49 361.05 304.751C361.623 305.012 362.3 304.916 363.079 304.463C363.968 303.915 364.87 302.897 365.787 301.408L378.539 297.693Z" fill="white"/>
<path d="M446.428 264.835C445.652 265.014 444.819 265.313 443.925 265.731C443.078 266.153 442.247 266.607 441.43 267.095C441.302 267.207 441.21 267.356 441.158 267.537L441.025 267.993C440.99 268.115 440.9 268.262 440.752 268.436C440.653 268.614 440.451 268.814 440.145 269.035C440.157 269.161 440.075 269.279 439.898 269.387C439.739 269.435 439.517 269.54 439.228 269.701C438.988 269.866 438.729 270.092 438.453 270.379C438.195 270.605 437.986 270.991 437.828 271.537C437.04 271.591 436.356 271.872 435.774 272.38C435.21 272.828 434.544 273.298 433.774 273.789C433.117 273.73 432.564 274.054 432.117 274.761C431.672 275.469 431.093 276.383 430.382 277.504C430.213 278.424 429.683 279.591 428.79 281.006C428.075 282.313 427.655 283.179 427.532 283.604C427.391 284.091 427.415 284.342 427.603 284.359L427.956 284.391C428.286 284.421 428.932 284.355 429.895 284.192C430.878 283.969 431.947 283.693 433.104 283.361C434.31 283.033 435.491 282.704 436.649 282.372C437.825 281.979 438.77 281.629 439.487 281.32C440.269 280.954 440.913 280.732 441.418 280.653C441.988 280.517 442.47 280.436 442.863 280.41C443.257 280.383 443.619 280.385 443.948 280.414C444.278 280.444 444.648 280.415 445.059 280.328L446.437 283.071C445.961 283.714 445.619 284.399 445.407 285.128C445.262 285.801 445.144 286.289 445.056 286.593C444.764 286.94 444.322 287.212 443.735 287.408C443.212 287.548 442.53 287.736 441.69 287.972C441.513 288.08 441.149 288.172 440.596 288.246C440.044 288.321 439.227 288.559 438.145 288.96C436.036 289.58 434.778 289.84 434.372 289.741C433.909 290.01 433.089 290.092 431.912 289.986C430.754 289.819 429.164 289.893 427.141 290.208C426.083 290.362 425.05 290.518 424.038 290.676C423.046 290.773 422.137 290.909 421.313 291.084C420.855 291.167 420.397 291.251 419.938 291.334C419.479 291.417 419.045 291.502 418.633 291.589C418.029 291.847 417.579 291.899 417.284 291.748C417.054 291.541 416.879 291.4 416.754 291.326C416.662 291.318 416.391 291.418 415.944 291.626C415.562 291.779 415.069 291.984 414.463 292.241L414.075 292.58L412.609 289.642C412.755 289.468 412.846 289.321 412.881 289.199C412.965 289.082 413.046 288.965 413.128 288.847C413.369 288.183 413.421 287.751 413.285 287.552C413.15 287.353 413.338 287.121 413.849 286.855C414.824 285.322 415.614 283.929 416.217 282.674C416.839 281.359 417.331 280.157 417.695 279.068C417.818 278.642 418.035 278.225 418.346 277.817C418.722 277.352 419.121 276.889 419.544 276.429C419.967 275.969 420.376 275.476 420.768 274.95C421.209 274.429 421.532 273.897 421.737 273.355L425.243 269.744C425.513 269.644 425.775 269.574 426.027 269.535C426.298 269.435 426.592 269.337 426.908 269.241C427.338 269.092 427.618 268.962 427.746 268.849C427.893 268.675 427.961 268.525 427.949 268.399C428.001 268.218 428.022 268.063 428.01 267.938C428.062 267.755 428.154 267.608 428.283 267.495C428.877 267.112 429.41 266.848 429.887 266.705C430.38 266.5 430.782 266.536 431.086 266.813C431.816 267.128 432.545 266.945 433.272 266.263C433.578 266.041 433.898 265.852 434.233 265.695C434.585 265.478 434.9 265.226 435.176 264.939C435.259 264.822 435.455 264.559 435.765 264.151C436.143 263.686 436.571 263.039 437.052 262.209C437.579 261.385 438.009 260.738 438.337 260.269C438.667 259.799 438.848 259.504 438.883 259.383C438.935 259.201 438.918 259.012 438.83 258.817L438.741 258.622L441.511 251.298C441.454 251.168 441.394 251.038 441.334 250.908C441.277 250.778 441.218 250.648 441.157 250.518C440.994 250.254 440.846 249.928 440.715 249.542C440.605 249.096 440.454 248.615 440.265 248.099C439.622 245.984 439.088 244.907 438.665 244.869C438.619 244.865 438.304 244.867 437.722 244.877C437.205 244.83 436.42 244.791 435.367 244.757C434.269 244.721 433.334 244.698 432.563 244.691C431.793 244.683 431.193 244.753 430.764 244.902L425.291 248.054L423.086 247.667C423.174 247.363 423.354 246.912 423.623 246.313C423.939 245.719 424.243 245.091 424.53 244.431C424.864 243.776 425.166 243.148 425.436 242.55C425.753 241.954 425.963 241.475 426.069 241.11C426.386 241.014 426.736 240.891 427.118 240.738C427.565 240.529 427.882 240.433 428.071 240.45C429.058 240.539 429.781 240.293 430.239 239.711C430.656 238.938 431.052 238.569 431.427 238.603C431.523 238.612 432.025 238.625 432.936 238.646C433.913 238.609 435.376 238.555 437.327 238.482C438.257 238.442 439.161 238.399 440.043 238.354C440.925 238.309 441.713 238.256 442.406 238.194C443.1 238.132 443.668 238.09 444.108 238.067C444.614 237.988 444.914 237.953 445.008 237.962C445.126 238.222 445.329 238.52 445.617 238.858C445.97 239.139 446.338 239.453 446.72 239.799C447.121 240.085 447.488 240.399 447.824 240.741C448.224 241.027 448.536 241.366 448.759 241.761C448.984 242.155 449.183 242.547 449.36 242.937C449.554 243.267 449.772 243.599 450.014 243.932C450.255 244.266 450.576 244.575 450.975 244.861C451.394 245.086 451.961 245.292 452.678 245.482L453.548 250.985C453.555 252.295 453.043 253.402 452.008 254.305C451.087 255.157 450.753 256.062 451.006 257.02C450.736 257.619 450.358 258.426 449.87 259.442C449.431 260.462 448.999 261.452 448.577 262.411L446.428 264.835Z" fill="white"/>
<g filter="url(#filter0_d_4_28)">
<path d="M350.617 233.98C352.082 234.118 353.751 232.512 354.346 230.392L357.936 217.594C358.53 215.473 357.826 213.643 356.361 213.504L290.981 207.324C289.518 207.186 287.849 208.793 287.254 210.914L283.238 225.23C282.643 227.35 283.347 229.181 284.811 229.32L303.647 231.1C309.68 231.67 313.414 235.293 314.668 241.092L282.365 238.039C280.901 237.9 279.233 239.507 278.638 241.627L275.048 254.424C274.453 256.544 275.157 258.376 276.621 258.514L311.687 261.828C307.076 273.243 299.145 279.899 289.913 279.026L271.358 277.273C269.895 277.134 268.226 278.741 267.631 280.861L262.873 297.822C262.573 298.893 262.594 299.945 262.934 300.723L285.716 352.913C286.023 353.614 286.563 354.038 287.228 354.102L305.465 355.825C307.878 356.053 310.239 351.872 309.132 349.335L288.305 301.625C305.412 302.473 322.063 287.28 330.337 263.591L342.001 264.694C343.466 264.832 345.134 263.225 345.729 261.105L349.319 248.308C349.914 246.188 349.21 244.356 347.745 244.218L334.783 242.992C335.048 239.227 334.95 235.703 334.507 232.457L350.617 233.98Z" fill="#144E77"/>
<path d="M264.627 299.945L287.415 352.137C287.415 352.137 287.415 352.137 287.415 352.137C287.497 352.324 287.587 352.42 287.641 352.461C287.663 352.48 287.678 352.488 287.685 352.491L305.919 354.213C305.926 354.214 305.932 354.215 305.946 354.211C305.951 354.211 305.958 354.208 305.966 354.206C306.002 354.194 306.079 354.161 306.194 354.076C306.437 353.897 306.747 353.561 307.025 353.071C307.6 352.053 307.761 350.878 307.43 350.119L286.597 302.406L285.48 299.845L288.669 300.004C296.558 300.395 304.44 297.111 311.444 290.76C318.472 284.387 324.553 274.964 328.619 263.326L329.146 261.817L330.798 261.974L342.454 263.075C342.489 263.07 342.661 263.03 342.964 262.738C343.351 262.366 343.76 261.738 343.985 260.938L347.576 248.14C347.801 247.339 347.755 246.668 347.593 246.244C347.464 245.911 347.324 245.841 347.293 245.83L334.337 244.607L332.887 244.469L332.981 243.132C333.241 239.455 333.144 236.027 332.715 232.885L332.403 230.595L334.969 230.838L351.073 232.36C351.108 232.355 351.28 232.315 351.582 232.022C351.969 231.65 352.379 231.023 352.603 230.222L356.194 217.423C356.42 216.623 356.374 215.952 356.21 215.529C356.083 215.196 355.942 215.126 355.912 215.115L290.536 208.937C290.501 208.942 290.33 208.983 290.028 209.274C289.641 209.646 289.231 210.273 289.007 211.074L284.989 225.391C284.765 226.193 284.81 226.863 284.973 227.287C285.101 227.619 285.24 227.69 285.272 227.701L304.102 229.48C310.96 230.129 315.101 234.296 316.455 240.556L316.977 242.965L314.218 242.705L281.917 239.652C281.882 239.657 281.711 239.698 281.409 239.99C281.022 240.362 280.612 240.99 280.388 241.79L276.797 254.588C276.572 255.389 276.618 256.059 276.781 256.484C276.909 256.816 277.048 256.886 277.079 256.897L312.143 260.211L314.102 260.396L313.387 262.168C311.004 268.062 307.7 272.898 303.625 276.17C299.494 279.486 294.637 281.132 289.456 280.642L270.909 278.889C270.873 278.894 270.702 278.935 270.399 279.227C270.013 279.598 269.603 280.226 269.378 281.027L264.619 297.988C264.39 298.805 264.439 299.513 264.627 299.945ZM264.627 299.945L263.013 300.683M290.544 208.936C290.544 208.936 290.542 208.936 290.539 208.937M355.906 215.113C355.906 215.113 355.907 215.113 355.909 215.114M351.066 232.36C351.066 232.36 351.068 232.36 351.07 232.36M285.278 227.703C285.278 227.703 285.276 227.702 285.274 227.701C285.277 227.702 285.278 227.703 285.278 227.703ZM347.287 245.829C347.287 245.829 347.288 245.829 347.29 245.83C347.288 245.829 347.287 245.829 347.287 245.829ZM342.448 263.076C342.448 263.076 342.449 263.075 342.451 263.076C342.448 263.076 342.448 263.076 342.448 263.076ZM270.915 278.889C270.915 278.889 270.913 278.889 270.911 278.889C270.913 278.888 270.915 278.889 270.915 278.889ZM277.085 256.899C277.085 256.899 277.084 256.899 277.081 256.898C277.084 256.898 277.085 256.899 277.085 256.899ZM281.925 239.652C281.925 239.652 281.923 239.652 281.92 239.652C281.923 239.652 281.925 239.652 281.925 239.652Z" stroke="#FDF0F0" stroke-width="4"/>
</g>
</g>
<defs>
<filter id="filter0_d_4_28" x="262.345" y="207.009" width="134.083" height="187.118" filterUnits="userSpaceOnUse" color-interpolation-filters="sRGB">
<feFlood flood-opacity="0" result="BackgroundImageFix"/>
<feColorMatrix in="SourceAlpha" type="matrix" values="0 0 0 0 0 0 0 0 0 0 0 0 0 0 0 0 0 0 127 0" result="hardAlpha"/>
<feOffset dx="22" dy="22"/>
<feGaussianBlur stdDeviation="8"/>
<feComposite in2="hardAlpha" operator="out"/>
<feColorMatrix type="matrix" values="0 0 0 0 0.391667 0 0 0 0 0.391667 0 0 0 0 0.391667 0 0 0 0.65 0"/>
<feBlend mode="normal" in2="BackgroundImageFix" result="effect1_dropShadow_4_28"/>
<feBlend mode="normal" in="SourceGraphic" in2="effect1_dropShadow_4_28" result="shape"/>
</filter>
<linearGradient id="paint0_linear_4_28" x1="404.481" y1="252.447" x2="376.248" y2="425.629" gradientUnits="userSpaceOnUse">
<stop stop-color="#34AEF3" stop-opacity="0.68"/>
<stop offset="1" stop-color="#1150CA" stop-opacity="0.7"/>
</linearGradient>
<clipPath id="clip0_4_28">
<rect width="549" height="553" fill="white" transform="translate(0.910645 0.383484)"/>
</clipPath>
</defs>
</svg>
